{
  "title": "A Place to Call Home - S04E01 - A Nagging Doubt",
  "uid": 15854655,
  "size": 434730868,
  "categoryP": "video",
  "categoryS": "tv_shows",
  "magnet": "?xt=urn:btih:a41a17e6315744220b18cda4740b9be0e31b6f0b&amp;dn=A+Place+to+Call+Home+-+S04E01+-+A+Nagging+Doubt&amp;tr=udp%3A%2F%2Ftracker.leechers-paradise.org%3A6969&amp;tr=udp%3A%2F%2Fzer0day.ch%3A1337&amp;tr=udp%3A%2F%2Fopen.demonii.com%3A1337&amp;tr=udp%3A%2F%2Ftracker.coppersurfer.tk%3A6969&amp;tr=udp%3A%2F%2Fexodus.desync.com%3A6969",
  "seeders": 85,
  "leechers": 11,
  "uploader": "Bullrout",
  "files": 1,
  "time": 1474229195,
  "description": "A Place to Call Home - S04E01 - A Nagging Doubt\r\n\r\nTensions arise at Ash Park while Sarah's life hangs in the balance and Carolyn's lifes falls apart. But how will George react when he learns of Regina's plot?\r\n\r\nComplete name : A Place to Call Home - S04E01 - A Nagging Doubt.mp4\r\nFormat : MPEG-4\r\nFormat profile : Base Media / Version 2\r\nCodec ID : mp42 (mp42/isom/avc1)\r\nFile size : 415 MiB\r\nDuration : 52 min 25 s\r\nOverall bit rate mode : Variable\r\nOverall bit rate : 1 106 kb/s\r\n\r\nVideo\r\nID : 2\r\nFormat : AVC\r\nFormat/Info : Advanced Video Codec\r\nFormat profile :   \r\nFormat settings, CABAC : Yes\r\nFormat settings, ReFrames : 3 frames\r\nCodec ID : avc1\r\nCodec ID/Info : Advanced Video Coding\r\nDuration : 52 min 25 s\r\nBit rate mode : Variable\r\nBit rate : 974 kb/s\r\nMaximum bit rate : 1 000 kb/s\r\nWidth : 720 pixels\r\nHeight : 404 pixels\r\nDisplay aspect ratio : 16:9\r\nOriginal display aspect ratio : 16:9\r\nFrame rate mode : Constant\r\nFrame rate : 25.000 FPS\r\nStandard : PAL\r\nColor space : YUV\r\nChroma subsampling : 4:2:0\r\nBit depth : 8 bits\r\nScan type : Progressive\r\nBits/(Pixel*Frame) : 0.134\r\nStream size : 365 MiB (88%)\r\nWriting library : x264 core 112\r\nColor range : Limited\r\nColor primaries : BT.601 PAL\r\nTransfer characteristics : BT.470 System B, BT.470 System G\r\nMatrix coefficients : BT.601\r\n\r\nAudio\r\nID : 1\r\nFormat : AAC\r\nFormat/Info : Advanced Audio Codec\r\nFormat profile : LC\r\nCodec ID : 40\r\nDuration : 52 min 25 s\r\nBit rate mode : Variable\r\nBit rate : 128 kb/s\r\nMaximum bit rate : 576 kb/s\r\nChannel(s) : 2 channels\r\nChannel positions : Front: L R\r\nSampling rate : 48.0 kHz\r\nFrame rate : 46.875 FPS (1024 spf)\r\nCompression mode : Lossy\r\nStream size : 48.0 MiB (12%)",
  "parsed": {
    "xt": "urn:btih:a41a17e6315744220b18cda4740b9be0e31b6f0b",
    "dn": "A Place to Call Home - S04E01 - A Nagging Doubt",
    "tr": [
      "udp://exodus.desync.com:6969",
      "udp://open.demonii.com:1337",
      "udp://tracker.coppersurfer.tk:6969",
      "udp://tracker.leechers-paradise.org:6969",
      "udp://zer0day.ch:1337"
    ],
    "infoHash": "a41a17e6315744220b18cda4740b9be0e31b6f0b",
    "infoHashBuffer": {
      "type": "Buffer",
      "data": [
        164,
        26,
        23,
        230,
        49,
        87,
        68,
        34,
        11,
        24,
        205,
        164,
        116,
        11,
        155,
        224,
        227,
        27,
        111,
        11
      ]
    },
    "name": "A Place to Call Home - S04E01 - A Nagging Doubt",
    "announce": [
      "udp://exodus.desync.com:6969",
      "udp://open.demonii.com:1337",
      "udp://tracker.coppersurfer.tk:6969",
      "udp://tracker.leechers-paradise.org:6969",
      "udp://zer0day.ch:1337"
    ],
    "urlList": []
  },
  "previous": 71,
  "peers": 74,
  "last_updated": "2016-12-27T09:06:07.555Z"
}